# xmcd
#
# Track frame offsets: 
#        150
#        12236
#        27144
#        39347
#        50145
#        63828
#        74279
#        88993
#        100600
#        113141
#        126210
#        139460
#        155513
#        166926
#        176418
#        188981
#        199733
#        213629
#
# Disc length: 3002 seconds
#
# Revision: 0
# Processed by: cddbd v1.5.2PL0 Copyright (c) Steve Scherf et al.
# Submitted via: ExactAudioCopy v1.0b3
#
DISCID=000bb812
DTITLE=Odyssées - Pas Si Bêtes
DYEAR=2006
DGENRE=Word Music
TTITLE0=Blind Blake - the monkey song
TTITLE1=Orquestra Hermanos Palau - la arana y la mosca
TTITLE2=Solomon Linda's Original Evening Birds - mbube
TTITLE3=Moondog - dog trot
TTITLE4=Pixinguinha - o urubu e o gavio
TTITLE5=Charles Trenet - la cigale et la fourmi
TTITLE6=Orchestre Del's Jazz Biguine - nain cochon
TTITLE7=Hubert Porter - monkey talk
TTITLE8=Ebenezer Calendar - the stolen chicken
TTITLE9=Ace Jonson - rabbit in the garden
TTITLE10=Clarence "Tom" Ashley - the coo coo bird
TTITLE11=Francisco Canaro - el tigre
TTITLE12=E.T. Mensah and The Tempos - donkey calypso
TTITLE13=Timothy - bulldog don't bite me
TTITLE14=Tito Puente - cha-cha cha de los pollos
TTITLE15=Leon Payne - I'm a lone wolf
TTITLE16=Emile Carrara - le charmeur de serpent
TTITLE17=Gus Viseur - tiger rag
EXTD=
EXTT0=
EXTT1=
EXTT2=
EXTT3=
EXTT4=
EXTT5=
EXTT6=
EXTT7=
EXTT8=
EXTT9=
EXTT10=
EXTT11=
EXTT12=
EXTT13=
EXTT14=
EXTT15=
EXTT16=
EXTT17=
PLAYORDER=
